<svg width="103" height="28" viewBox="0 0 103 28" fill="none" xmlns="http://www.w3.org/2000/svg">
<g clip-path="url(#clip0_30_455)">
<path d="M6.32617 1.4682C12.4594 -1.97148 21.2212 0.848712 25.8998 7.77256C30.5785 14.6964 29.4011 23.0954 23.2713 26.5351C28.4839 23.6122 29.4832 16.4693 25.5062 10.5859C21.5292 4.70252 14.0783 2.3033 8.86913 5.22617C3.65657 8.15247 2.65718 15.2919 6.63078 21.1788C10.6078 27.0621 18.0553 29.4614 23.2679 26.5351C17.1346 29.9782 8.37286 27.1545 3.69421 20.2307C-0.981009 13.3103 0.196353 4.90787 6.32617 1.4682Z" fill="black"/>
<path d="M10.8846 3.69296C15.909 0.872771 23.0895 3.18642 26.9194 8.85761C30.7526 14.5288 29.7875 21.4116 24.7631 24.2318C29.0345 21.836 29.8525 15.9834 26.5942 11.1644C23.3394 6.34545 17.2335 4.37748 12.9656 6.77327C8.69421 9.16907 7.87621 15.0217 11.1345 19.844C14.3928 24.6664 20.4952 26.631 24.7666 24.2318C19.7422 27.052 12.5617 24.7417 8.73185 19.0671C4.89858 13.3959 5.86374 6.50974 10.8881 3.69296H10.8846Z" fill="black"/>
<path d="M17.942 3.46707C23.2676 3.80248 28.1447 8.42979 28.8326 13.8032C29.5172 19.1766 25.7558 23.2598 20.4302 22.9278C24.9583 23.2118 28.155 19.7414 27.5731 15.1722C26.9879 10.6031 22.8466 6.67059 18.3185 6.38652C13.7905 6.10245 10.5904 9.57293 11.1756 14.1421C11.7609 18.7112 15.9056 22.6437 20.4302 22.9278C15.1047 22.5924 10.231 17.9651 9.54307 12.5916C8.85514 7.2182 12.6165 3.13508 17.9455 3.46707H17.942Z" fill="black"/>
<path d="M23.5311 5.64035C27.7443 8.16963 29.7328 13.3137 27.977 17.1265C26.2178 20.9392 21.3783 21.9797 17.1651 19.4504C20.7485 21.5998 24.8625 20.7168 26.3547 17.4756C27.8504 14.2344 26.1562 9.8638 22.5762 7.711C18.9928 5.56163 14.8788 6.44465 13.3866 9.68582C11.8909 12.927 13.5817 17.2976 17.1651 19.447C12.9519 16.9177 10.9634 11.7736 12.7226 7.96085C14.4818 4.14811 19.3213 3.10765 23.5345 5.63693L23.5311 5.64035Z" fill="black"/>
</g>
<path d="M95.6481 22.4077C94.8895 22.4077 94.2477 22.2651 93.7226 21.9798C93.1974 21.6881 92.7987 21.3023 92.5264 20.8226C92.2606 20.3428 92.1277 19.8144 92.1277 19.2374C92.1277 18.7317 92.212 18.2779 92.3805 17.8759C92.5491 17.4675 92.8084 17.1174 93.1585 16.8257C93.5086 16.5274 93.9624 16.2843 94.52 16.0963C94.9414 15.9602 95.4341 15.837 95.9982 15.7268C96.5687 15.6165 97.1846 15.5161 97.8459 15.4253C98.5136 15.328 99.2106 15.2243 99.9367 15.1141L99.1004 15.5906C99.1069 14.8645 98.9448 14.3296 98.6141 13.986C98.2835 13.6424 97.7259 13.4706 96.9415 13.4706C96.4682 13.4706 96.0111 13.5808 95.5703 13.8012C95.1294 14.0217 94.8215 14.4009 94.6464 14.939L92.507 14.268C92.7663 13.3798 93.259 12.6667 93.9851 12.1286C94.7177 11.5905 95.7032 11.3214 96.9415 11.3214C97.8751 11.3214 98.6952 11.4738 99.4019 11.7785C100.115 12.0832 100.643 12.5824 100.987 13.2761C101.175 13.6456 101.288 14.0249 101.327 14.4139C101.366 14.7964 101.386 15.2146 101.386 15.6684V22.116H99.3338V19.8404L99.6741 20.2099C99.2009 20.9684 98.6466 21.526 98.0112 21.8826C97.3823 22.2327 96.5946 22.4077 95.6481 22.4077ZM96.1149 20.5405C96.6465 20.5405 97.1003 20.4465 97.4763 20.2585C97.8524 20.0705 98.1506 19.8404 98.371 19.5681C98.5979 19.2958 98.7503 19.0397 98.8281 18.7998C98.9513 18.5016 99.0193 18.1612 99.0323 17.7787C99.0518 17.3897 99.0615 17.0753 99.0615 16.8354L99.7811 17.0493C99.0744 17.1595 98.4683 17.2568 97.9626 17.3411C97.4569 17.4254 97.0225 17.5064 96.6594 17.5842C96.2964 17.6555 95.9755 17.7366 95.6967 17.8273C95.4244 17.9246 95.1942 18.038 95.0062 18.1677C94.8182 18.2974 94.6723 18.4465 94.5686 18.615C94.4714 18.7836 94.4227 18.9813 94.4227 19.2082C94.4227 19.4676 94.4876 19.6977 94.6172 19.8987C94.7469 20.0932 94.9349 20.2488 95.1813 20.3655C95.4341 20.4822 95.7453 20.5405 96.1149 20.5405Z" fill="black"/>
<path d="M87.8011 22.116V17.0591C87.8011 16.7284 87.7784 16.3621 87.733 15.9602C87.6876 15.5582 87.5807 15.1725 87.4121 14.8029C87.25 14.4269 87.0037 14.1189 86.673 13.8791C86.3489 13.6392 85.908 13.5192 85.3504 13.5192C85.0522 13.5192 84.7572 13.5679 84.4655 13.6651C84.1737 13.7624 83.9079 13.9309 83.6681 14.1708C83.4347 14.4042 83.2466 14.7284 83.104 15.1433C82.9614 15.5517 82.8901 16.0769 82.8901 16.7187L81.4994 16.1255C81.4994 15.2308 81.6712 14.4204 82.0148 13.6943C82.3649 12.9682 82.8771 12.3912 83.5514 11.9633C84.2256 11.5289 85.0555 11.3117 86.0409 11.3117C86.8189 11.3117 87.4607 11.4414 87.9664 11.7007C88.4721 11.96 88.8741 12.2907 89.1723 12.6926C89.4705 13.0946 89.691 13.5225 89.8336 13.9763C89.9762 14.4301 90.067 14.8613 90.1059 15.2697C90.1513 15.6717 90.174 15.9991 90.174 16.2519V22.116H87.8011ZM80.5172 22.116V11.6132H82.608V14.871H82.8901V22.116H80.5172Z" fill="black"/>
<path d="M75.2799 10.0183V7.86914H77.6236V10.0183H75.2799ZM75.2799 22.116V11.6132H77.6236V22.116H75.2799Z" fill="black"/>
<path d="M70.2055 22.116V15.7365C70.2055 15.0168 70.0273 14.456 69.6707 14.0541C69.3141 13.6456 68.8311 13.4414 68.2217 13.4414C67.8457 13.4414 67.5085 13.5289 67.2103 13.704C66.9121 13.8726 66.6754 14.1254 66.5004 14.4625C66.3253 14.7932 66.2378 15.1886 66.2378 15.649L65.1973 15.0363C65.1908 14.3102 65.3529 13.6716 65.6835 13.1205C66.0206 12.5629 66.4745 12.1286 67.045 11.8174C67.6155 11.5062 68.2509 11.3506 68.951 11.3506C70.1115 11.3506 70.9997 11.7007 71.6156 12.4009C72.238 13.0946 72.5492 14.0087 72.5492 15.1433V22.116H70.2055ZM57.573 22.116V11.6132H59.6444V14.871H59.9361V22.116H57.573ZM63.9039 22.116V15.7657C63.9039 15.0331 63.7256 14.4625 63.369 14.0541C63.0124 13.6456 62.5262 13.4414 61.9103 13.4414C61.3138 13.4414 60.8341 13.6456 60.471 14.0541C60.1144 14.4625 59.9361 14.9942 59.9361 15.649L58.8858 14.9488C58.8858 14.268 59.0544 13.6554 59.3915 13.1108C59.7287 12.5662 60.1825 12.1383 60.753 11.8271C61.33 11.5094 61.9751 11.3506 62.6883 11.3506C63.4727 11.3506 64.1275 11.5191 64.6527 11.8563C65.1843 12.1869 65.5798 12.6407 65.8391 13.2178C66.1049 13.7883 66.2378 14.4334 66.2378 15.153V22.116H63.9039Z" fill="black"/>
<path d="M49.3556 22.4175C48.5776 22.4175 47.9358 22.2878 47.4301 22.0285C46.9244 21.7692 46.5224 21.4385 46.2242 21.0366C45.926 20.6346 45.7055 20.2067 45.5629 19.7529C45.4203 19.2991 45.3263 18.8712 45.2809 18.4692C45.242 18.0608 45.2225 17.7301 45.2225 17.4773V11.6132H47.5954V16.6701C47.5954 16.9943 47.6181 17.3606 47.6635 17.769C47.7088 18.171 47.8126 18.56 47.9747 18.936C48.1432 19.3056 48.3896 19.6103 48.7137 19.8501C49.0444 20.09 49.4885 20.21 50.046 20.21C50.3443 20.21 50.6393 20.1613 50.931 20.0641C51.2227 19.9668 51.4853 19.8015 51.7187 19.5681C51.9586 19.3282 52.1498 19.0008 52.2925 18.5859C52.4351 18.171 52.5064 17.6459 52.5064 17.0105L53.8971 17.6037C53.8971 18.4984 53.722 19.3088 53.3719 20.0349C53.0283 20.761 52.5194 21.3413 51.8451 21.7757C51.1709 22.2036 50.341 22.4175 49.3556 22.4175ZM52.7884 22.116V18.8582H52.5064V11.6132H54.8598V22.116H52.7884Z" fill="black"/>
<path d="M35.241 22.116V8.11224H37.5846V19.9182H43.7696V22.116H35.241Z" fill="black"/>
<defs>
<clipPath id="clip0_30_455">
<rect width="28.4347" height="28" fill="white" transform="translate(0.833008)"/>
</clipPath>
</defs>
</svg>
