<svg width="95" height="28" viewBox="0 0 95 28" fill="none" xmlns="http://www.w3.org/2000/svg">
<g clip-path="url(#clip0_30_469)">
<path d="M0.333008 13.9921C0.333008 17.857 1.94175 21.5807 4.77079 24.2332C5.63009 22.7774 5.90868 20.945 5.40251 19.093C4.70408 16.5269 2.68727 14.6239 0.333008 13.9921Z" fill="black"/>
<path d="M1.05474 9.58577C0.70552 10.6334 0.481866 11.7007 0.387695 12.7601C3.64835 13.0858 6.4146 16.8408 6.73635 21.6043C6.83052 22.9933 6.70104 24.3234 6.39891 25.532C7.13265 26.0381 7.92525 26.4737 8.77279 26.8425C9.22009 24.6216 9.2044 22.1654 8.63153 19.6855C7.51326 14.8397 4.55081 11.1239 1.05474 9.58185V9.58577Z" fill="black"/>
<path d="M16.154 7.25896C19.6932 8.05549 23.1619 7.5297 25.8496 6.04259C25.3474 5.31277 24.7745 4.63004 24.135 4.00616C21.7022 5.96412 17.6137 6.36434 13.7017 4.73598C11.6613 3.88845 9.978 2.61322 8.78518 1.14966C8.41242 1.31053 8.04359 1.4871 7.68652 1.68329C9.45222 4.32791 12.4578 6.42712 16.154 7.25896Z" fill="black"/>
<path d="M28.18 16.0757C28.2938 15.3105 28.3448 14.5415 28.333 13.7803C25.4098 14.7024 22.6396 16.8487 20.7758 19.9602C19.3594 22.3262 18.6805 24.8885 18.6845 27.3055C19.0141 27.1996 19.3358 27.0818 19.6576 26.9524C19.9479 24.7511 21.1133 22.2321 23.0516 19.9877C24.6094 18.1827 26.4182 16.8487 28.18 16.0796V16.0757Z" fill="black"/>
<path d="M26.9675 7.98092C23.0202 9.78585 16.9815 9.60928 10.9978 7.12162C8.71412 6.17206 6.66592 4.97924 4.91984 3.64124C3.78195 4.67319 2.80101 5.90132 2.03979 7.30996C6.55997 9.21298 10.2562 16.2051 10.833 24.7668C10.8957 25.7203 10.9193 26.658 10.9036 27.5762C12.8302 28.0667 14.7881 28.1255 16.6676 27.8038C16.9501 23.8643 18.9708 19.2147 22.5219 15.1065C24.1738 13.1956 25.9865 11.5986 27.8425 10.347C27.6228 9.53473 27.3324 8.74213 26.9675 7.98092ZM14.7724 19.042C9.14574 19.042 9.15358 10.3116 14.7724 10.3116C20.3913 10.3116 20.3913 19.042 14.7724 19.042Z" fill="black"/>
<path d="M16.8085 4.59083C19.045 5.00282 21.3012 4.3711 23.0433 3.04486C22.0506 2.25619 20.9363 1.58522 19.7042 1.07513C17.04 -0.0313687 14.2266 -0.255023 11.5898 0.274685C12.3981 2.44453 14.2894 4.12782 16.8085 4.59083Z" fill="black"/>
<path d="M27.4112 18.9832C25.3552 19.3088 23.3187 20.6821 22.02 22.8441C21.3333 23.9899 20.9488 25.2102 20.8311 26.3991C23.6287 24.9355 25.9516 22.5185 27.2582 19.3755C27.3131 19.246 27.3602 19.1126 27.4112 18.9832Z" fill="black"/>
</g>
<path d="M83.6249 21.0457L87.4777 15.72L83.7029 10.5114H86.473L88.8433 13.8765L91.1745 10.5114H93.9446L90.1698 15.72L94.0421 21.0457H91.272L88.8433 17.5635L86.395 21.0457H83.6249Z" fill="black"/>
<path d="M78.2299 21.3383C77.1635 21.3383 76.2271 21.1075 75.4208 20.6458C74.6144 20.1841 73.9837 19.5436 73.5285 18.7243C73.0798 17.9049 72.8555 16.9621 72.8555 15.8956C72.8555 14.7447 73.0766 13.7465 73.5187 12.9012C73.9609 12.0493 74.5754 11.3893 75.3622 10.9211C76.1491 10.4529 77.0594 10.2188 78.0934 10.2188C79.1858 10.2188 80.1124 10.4757 80.8732 10.9894C81.6405 11.4966 82.2095 12.2151 82.5802 13.145C82.9508 14.0749 83.0906 15.1706 82.9996 16.4321H80.6684V15.5737C80.6619 14.4293 80.4603 13.5937 80.0637 13.067C79.667 12.5403 79.0427 12.2769 78.1909 12.2769C77.2285 12.2769 76.5132 12.576 76.045 13.1743C75.5768 13.766 75.3427 14.6341 75.3427 15.7786C75.3427 16.845 75.5768 17.6708 76.045 18.2561C76.5132 18.8413 77.196 19.1339 78.0934 19.1339C78.6721 19.1339 79.1695 19.0071 79.5857 18.7535C80.0084 18.4934 80.3335 18.1195 80.5611 17.6318L82.8826 18.3341C82.4794 19.2835 81.8551 20.0215 81.0098 20.5483C80.1709 21.075 79.2443 21.3383 78.2299 21.3383ZM74.6014 16.4321V14.6569H81.8486V16.4321H74.6014Z" fill="black"/>
<path d="M71.709 21.0457C71.0132 21.1757 70.3304 21.231 69.6607 21.2115C68.9974 21.1985 68.4024 21.0782 67.8757 20.8506C67.349 20.6165 66.9491 20.2491 66.6759 19.7484C66.4354 19.2932 66.3086 18.8283 66.2955 18.3536C66.2825 17.8789 66.276 17.3424 66.276 16.7442V7.58521H68.617V16.6076C68.617 17.0303 68.6202 17.4009 68.6267 17.7196C68.6397 18.0382 68.708 18.2983 68.8316 18.4999C69.0657 18.8901 69.4396 19.1079 69.9533 19.1534C70.467 19.1989 71.0522 19.1729 71.709 19.0754V21.0457ZM64.3643 12.3549V10.5114H71.709V12.3549H64.3643Z" fill="black"/>
<path d="M57.7434 21.0457V10.5114H59.821V13.0767L59.5674 12.7451C59.6975 12.3939 59.8698 12.0753 60.0844 11.7892C60.3055 11.4966 60.5688 11.256 60.8744 11.0674C61.1345 10.8918 61.4207 10.7553 61.7328 10.6577C62.0514 10.5537 62.3765 10.4919 62.7082 10.4724C63.0398 10.4464 63.3617 10.4594 63.6738 10.5114V12.7061C63.3617 12.615 63.0008 12.5858 62.5911 12.6183C62.188 12.6508 61.8238 12.7646 61.4987 12.9597C61.1736 13.1353 60.9069 13.3596 60.6989 13.6327C60.4973 13.9058 60.3477 14.2179 60.2502 14.5691C60.1526 14.9137 60.1039 15.2876 60.1039 15.6908V21.0457H57.7434Z" fill="black"/>
<path d="M50.3365 21.3383C49.2831 21.3383 48.363 21.101 47.5761 20.6263C46.7893 20.1516 46.1781 19.4981 45.7424 18.6657C45.3132 17.8269 45.0986 16.8645 45.0986 15.7786C45.0986 14.6731 45.3197 13.7042 45.7619 12.8719C46.2041 12.0396 46.8186 11.3893 47.6054 10.9211C48.3922 10.4529 49.3026 10.2188 50.3365 10.2188C51.3964 10.2188 52.3198 10.4562 53.1066 10.9309C53.8935 11.4055 54.5047 12.0623 54.9404 12.9012C55.3761 13.7335 55.5939 14.6926 55.5939 15.7786C55.5939 16.871 55.3728 17.8367 54.9306 18.6755C54.495 19.5078 53.8837 20.1614 53.0969 20.636C52.3101 21.1042 51.3899 21.3383 50.3365 21.3383ZM50.3365 19.1339C51.2729 19.1339 51.9687 18.8218 52.4239 18.1976C52.879 17.5733 53.1066 16.767 53.1066 15.7786C53.1066 14.7577 52.8758 13.9448 52.4141 13.3401C51.9524 12.7288 51.2599 12.4232 50.3365 12.4232C49.7058 12.4232 49.1855 12.5663 48.7759 12.8524C48.3727 13.132 48.0736 13.5254 47.8785 14.0326C47.6834 14.5333 47.5859 15.1153 47.5859 15.7786C47.5859 16.7995 47.8167 17.6156 48.2784 18.2268C48.7466 18.8316 49.4326 19.1339 50.3365 19.1339Z" fill="black"/>
<path d="M37.5094 21.0457L33.0811 7H35.5L39.2065 18.7633L42.9618 7H45.3808L40.9525 21.0457H37.5094Z" fill="black"/>
<defs>
<clipPath id="clip0_30_469">
<rect width="28" height="28" fill="white" transform="translate(0.333008)"/>
</clipPath>
</defs>
</svg>
