<svg width="108" height="28" viewBox="0 0 108 28" fill="none" xmlns="http://www.w3.org/2000/svg">
<g clip-path="url(#clip0_30_486)">
<path fill-rule="evenodd" clip-rule="evenodd" d="M5.03288 23.277C-1.81084 17.2158 -0.903285 7.37624 5.95896 2.50043C10.7792 -0.921432 18.1184 -1.3428 22.7905 4.4915C26.1012 8.62644 26.3281 14.5719 24.2305 18.1604C22.9155 20.4015 19.8965 22.0592 18.0489 19.8459C16.3681 17.8363 18.2434 16.0536 18.9009 13.706C21.2485 5.29256 9.60308 -0.66676 3.46781 7.42717C0.337661 11.5575 0.513616 17.9243 5.03288 23.277Z" fill="black"/>
<path fill-rule="evenodd" clip-rule="evenodd" d="M26.4996 4.92212C33.2044 11.1407 32.07 20.9572 25.0966 25.6709C20.1977 28.9817 12.8539 29.2317 8.31607 23.2955C5.09794 19.0819 5.00997 13.1318 7.19088 9.59419C8.55685 7.38549 11.6129 5.79263 13.4141 8.05227C15.0487 10.0989 13.127 11.8399 12.4186 14.169C9.88114 22.5315 21.383 28.7594 27.7035 20.8044C30.9263 16.7481 30.8985 10.3721 26.5043 4.92212H26.4996Z" fill="black"/>
</g>
<path d="M100.216 24.85L102.12 19.6232L102.156 21.161L97.8448 10.57H100.142L103.2 18.4057H102.614L105.589 10.57H107.795L102.284 24.85H100.216Z" fill="black"/>
<path d="M97.0579 20.4562C96.4049 20.5782 95.7641 20.6301 95.1356 20.6118C94.5131 20.5996 93.9547 20.4867 93.4604 20.2731C92.9661 20.0534 92.5908 19.7086 92.3345 19.2387C92.1087 18.8115 91.9897 18.3752 91.9775 17.9297C91.9653 17.4842 91.9592 16.9808 91.9592 16.4193V7.82385H94.1561V16.2912C94.1561 16.6878 94.1592 17.0357 94.1653 17.3347C94.1775 17.6337 94.2416 17.8778 94.3575 18.067C94.5772 18.4332 94.9281 18.6376 95.4102 18.6803C95.8923 18.723 96.4415 18.6986 97.0579 18.6071V20.4562ZM90.165 12.3001V10.57H97.0579V12.3001H90.165Z" fill="black"/>
<path d="M86.3154 9.06878V7.04578H88.5215V9.06878H86.3154ZM86.3154 20.4562V10.57H88.5215V20.4562H86.3154Z" fill="black"/>
<path d="M80.1634 20.7308C79.1443 20.7308 78.2747 20.505 77.5546 20.0534C76.8345 19.5957 76.2822 18.9733 75.8977 18.186C75.5194 17.3988 75.3271 16.5078 75.321 15.5131C75.3271 14.5001 75.5255 13.603 75.916 12.8219C76.3127 12.0346 76.8741 11.4183 77.6004 10.9728C78.3266 10.5212 79.1901 10.2954 80.1909 10.2954C81.3138 10.2954 82.2627 10.5792 83.0377 11.1467C83.8189 11.7082 84.3284 12.4771 84.5664 13.4535L82.3695 14.0485C82.1986 13.5176 81.9149 13.1056 81.5182 12.8127C81.1215 12.5137 80.6699 12.3642 80.1634 12.3642C79.5898 12.3642 79.1168 12.5015 78.7446 12.7761C78.3723 13.0446 78.0977 13.4169 77.9207 13.8929C77.7438 14.3689 77.6553 14.9089 77.6553 15.5131C77.6553 16.4529 77.8658 17.2127 78.2869 17.7924C78.708 18.3722 79.3335 18.662 80.1634 18.662C80.7493 18.662 81.21 18.5278 81.5457 18.2593C81.8874 17.9907 82.1437 17.6032 82.3146 17.0967L84.5664 17.6002C84.2613 18.6071 83.7273 19.3821 82.9645 19.9253C82.2017 20.4623 81.268 20.7308 80.1634 20.7308Z" fill="black"/>
<path d="M68.9196 20.7308C67.931 20.7308 67.0675 20.5081 66.3291 20.0626C65.5907 19.6171 65.0171 19.0038 64.6082 18.2226C64.2054 17.4354 64.004 16.5322 64.004 15.5131C64.004 14.4757 64.2115 13.5664 64.6265 12.7853C65.0415 12.0041 65.6182 11.3939 66.3566 10.9545C67.095 10.5151 67.9493 10.2954 68.9196 10.2954C69.9144 10.2954 70.7809 10.5182 71.5193 10.9636C72.2577 11.4091 72.8314 12.0255 73.2403 12.8127C73.6491 13.5938 73.8536 14.494 73.8536 15.5131C73.8536 16.5383 73.6461 17.4446 73.2311 18.2318C72.8222 19.0129 72.2486 19.6262 71.5102 20.0717C70.7718 20.5111 69.9083 20.7308 68.9196 20.7308ZM68.9196 18.662C69.7984 18.662 70.4514 18.3691 70.8786 17.7833C71.3057 17.1974 71.5193 16.4407 71.5193 15.5131C71.5193 14.555 71.3027 13.7922 70.8694 13.2246C70.4361 12.651 69.7862 12.3642 68.9196 12.3642C68.3277 12.3642 67.8395 12.4984 67.455 12.7669C67.0767 13.0294 66.796 13.3986 66.6129 13.8746C66.4298 14.3445 66.3383 14.8906 66.3383 15.5131C66.3383 16.4712 66.5549 17.2371 66.9882 17.8107C67.4276 18.3783 68.0714 18.662 68.9196 18.662Z" fill="black"/>
<path d="M59.6055 20.4562V7H61.8115V20.4562H59.6055Z" fill="black"/>
<path d="M52.9033 20.7308C51.9024 20.7308 51.0237 20.5142 50.267 20.0809C49.5102 19.6476 48.9183 19.0465 48.4911 18.2776C48.07 17.5086 47.8595 16.6238 47.8595 15.6229C47.8595 14.5428 48.067 13.6061 48.482 12.8127C48.8969 12.0133 49.4736 11.3939 50.212 10.9545C50.9504 10.5151 51.8048 10.2954 52.7751 10.2954C53.8003 10.2954 54.67 10.5365 55.384 11.0186C56.1041 11.4946 56.638 12.1689 56.9859 13.0416C57.3337 13.9142 57.4649 14.9425 57.3795 16.1264H55.1917V15.3209C55.1856 14.2468 54.9964 13.4626 54.6242 12.9683C54.2519 12.474 53.6661 12.2269 52.8667 12.2269C51.9635 12.2269 51.2922 12.5076 50.8528 13.069C50.4134 13.6244 50.1937 14.4391 50.1937 15.5131C50.1937 16.5139 50.4134 17.2889 50.8528 17.8382C51.2922 18.3874 51.933 18.662 52.7751 18.662C53.3182 18.662 53.7851 18.543 54.1757 18.305C54.5723 18.0609 54.8774 17.71 55.091 17.2523L57.2697 17.9114C56.8913 18.8024 56.3054 19.495 55.5121 19.9893C54.7249 20.4836 53.8553 20.7308 52.9033 20.7308ZM49.498 16.1264V14.4604H56.2993V16.1264H49.498Z" fill="black"/>
<path d="M40.7369 20.4561L36.5811 7.2746H38.8512L42.3297 18.3141L45.8539 7.2746H48.1241L43.9682 20.4561H40.7369Z" fill="black"/>
<defs>
<clipPath id="clip0_30_486">
<rect width="30.6393" height="28" fill="white" transform="translate(0.333008)"/>
</clipPath>
</defs>
</svg>
