<svg width="102" height="28" viewBox="0 0 102 28" fill="none" xmlns="http://www.w3.org/2000/svg">
<g clip-path="url(#clip0_30_501)">
<path d="M0.833008 22.9973V28L17.9536 20.3482V15.3455L0.833008 22.9973Z" fill="black"/>
<path d="M0.833008 5.00273V0L17.9536 7.65181V12.6545L0.833008 5.00273Z" fill="black"/>
<path d="M0.833008 12.657V7.6543L17.9536 15.3061V20.3113L0.833008 12.657Z" fill="black"/>
</g>
<path d="M93.3026 24.0268L95.3697 18.352L95.4095 20.0217L90.7285 8.52295H93.2231L96.5425 17.0302H95.9064L99.1364 8.52295H101.532L95.5486 24.0268H93.3026Z" fill="black"/>
<path d="M84.1542 24.325C83.5579 24.325 82.9848 24.2323 82.4349 24.0468C81.8916 23.8612 81.4013 23.5929 80.964 23.2418C80.5267 22.8972 80.1689 22.4798 79.8907 21.9895L82.097 20.8963C82.3024 21.2872 82.5906 21.5754 82.9616 21.7609C83.3393 21.9531 83.7401 22.0491 84.1642 22.0491C84.6611 22.0491 85.105 21.9597 85.4959 21.7808C85.8868 21.6085 86.1883 21.3502 86.4003 21.0056C86.6189 20.6677 86.7216 20.2437 86.7084 19.7335V16.6824H87.0065V8.523H89.1035V19.7733C89.1035 20.0449 89.0903 20.3033 89.0638 20.5485C89.0439 20.8002 89.0075 21.0454 88.9545 21.2839C88.7955 21.9796 88.4907 22.5494 88.0401 22.9933C87.5896 23.4438 87.0297 23.7784 86.3606 23.9971C85.698 24.2157 84.9626 24.325 84.1542 24.325ZM83.9455 19.5546C82.9583 19.5546 82.097 19.3062 81.3615 18.8092C80.6261 18.3123 80.0563 17.6365 79.6521 16.7818C79.248 15.9271 79.0459 14.9631 79.0459 13.8897C79.0459 12.8031 79.248 11.8358 79.6521 10.9877C80.0629 10.133 80.6427 9.46053 81.3914 8.97023C82.14 8.47331 83.0213 8.22485 84.035 8.22485C85.0553 8.22485 85.91 8.47331 86.5991 8.97023C87.2948 9.46053 87.8215 10.133 88.1793 10.9877C88.5371 11.8424 88.7159 12.8098 88.7159 13.8897C88.7159 14.9565 88.5371 15.9205 88.1793 16.7818C87.8215 17.6365 87.2881 18.3123 86.5792 18.8092C85.8703 19.3062 84.9924 19.5546 83.9455 19.5546ZM84.3132 17.4079C84.9559 17.4079 85.4727 17.2622 85.8636 16.9706C86.2612 16.6725 86.5494 16.2584 86.7283 15.7283C86.9138 15.1983 87.0065 14.5854 87.0065 13.8897C87.0065 13.1874 86.9138 12.5746 86.7283 12.0511C86.5494 11.5211 86.2678 11.1103 85.8835 10.8188C85.4992 10.5206 85.0023 10.3715 84.3927 10.3715C83.7501 10.3715 83.22 10.5306 82.8026 10.8486C82.3852 11.16 82.0771 11.584 81.8783 12.1207C81.6796 12.6507 81.5802 13.2404 81.5802 13.8897C81.5802 14.5457 81.6763 15.142 81.8684 15.6786C82.0672 16.2087 82.3686 16.6294 82.7728 16.9408C83.177 17.2522 83.6904 17.4079 84.3132 17.4079Z" fill="black"/>
<path d="M72.0919 19.2564V8.52298H74.2088V11.1368L73.9504 10.7989C74.0829 10.4411 74.2585 10.1164 74.4771 9.8249C74.7024 9.52675 74.9707 9.28161 75.2821 9.08946C75.5472 8.91057 75.8387 8.77144 76.1567 8.67205C76.4814 8.56604 76.8127 8.5031 77.1506 8.48322C77.4885 8.45672 77.8164 8.46997 78.1345 8.52298V10.7591C77.8164 10.6664 77.4487 10.6365 77.0313 10.6697C76.6205 10.7028 76.2495 10.8187 75.9182 11.0175C75.5869 11.1964 75.3153 11.425 75.1033 11.7033C74.8979 11.9815 74.7455 12.2996 74.6461 12.6573C74.5467 13.0085 74.497 13.3895 74.497 13.8003V19.2564H72.0919Z" fill="black"/>
<path d="M65.0141 19.5546C63.9275 19.5546 62.9735 19.3194 62.1519 18.849C61.3303 18.3786 60.6876 17.726 60.2238 16.8911C59.7667 16.0563 59.5381 15.0956 59.5381 14.009C59.5381 12.8363 59.7634 11.8192 60.2139 10.9579C60.6644 10.09 61.2906 9.41746 62.0923 8.94042C62.8939 8.46337 63.8215 8.22485 64.875 8.22485C65.9881 8.22485 66.9322 8.48656 67.7074 9.00999C68.4893 9.52678 69.069 10.2589 69.4467 11.2064C69.8243 12.1538 69.9668 13.2702 69.874 14.5556H67.4987V13.681C67.4921 12.5149 67.2867 11.6635 66.8826 11.1269C66.4784 10.5902 65.8423 10.3219 64.9744 10.3219C63.9938 10.3219 63.265 10.6266 62.7879 11.2362C62.3109 11.8391 62.0724 12.7236 62.0724 13.8897C62.0724 14.9763 62.3109 15.8178 62.7879 16.4141C63.265 17.0104 63.9607 17.3085 64.875 17.3085C65.4647 17.3085 65.9715 17.1793 66.3956 16.9209C66.8262 16.6559 67.1575 16.2749 67.3894 15.778L69.7547 16.4936C69.344 17.4609 68.7079 18.2129 67.8466 18.7496C66.9919 19.2863 66.0477 19.5546 65.0141 19.5546ZM61.3171 14.5556V12.7468H68.7013V14.5556H61.3171Z" fill="black"/>
<path d="M55.2905 19.2565V14.0885C55.2905 13.7506 55.2673 13.3762 55.221 12.9655C55.1746 12.5547 55.0653 12.1604 54.893 11.7828C54.7274 11.3985 54.4756 11.0838 54.1377 10.8386C53.8064 10.5935 53.3559 10.4709 52.7861 10.4709C52.4813 10.4709 52.1798 10.5206 51.8817 10.62C51.5835 10.7194 51.3119 10.8916 51.0667 11.1368C50.8282 11.3753 50.6361 11.7066 50.4903 12.1306C50.3445 12.548 50.2716 13.0847 50.2716 13.7406L48.8505 13.1344C48.8505 12.2201 49.026 11.3919 49.3772 10.6498C49.735 9.90774 50.2584 9.31807 50.9475 8.88078C51.6365 8.43686 52.4846 8.2149 53.4917 8.2149C54.2868 8.2149 54.9427 8.34742 55.4595 8.61244C55.9763 8.87746 56.3871 9.21537 56.6918 9.62616C56.9966 10.0369 57.2219 10.4742 57.3677 10.938C57.5134 11.4018 57.6062 11.8424 57.6459 12.2598C57.6923 12.6706 57.7155 13.0052 57.7155 13.2636V19.2565H55.2905ZM47.8467 19.2565V8.52299H49.9834V11.8524H50.2716V19.2565H47.8467Z" fill="black"/>
<path d="M38.1561 24.0268L40.2233 18.352L40.263 20.0217L35.582 8.52295H38.0766L41.396 17.0302H40.7599L43.9899 8.52295H46.3851L40.4021 24.0268H38.1561Z" fill="black"/>
<path d="M29.1723 19.5546C28.1255 19.5546 27.1813 19.3724 26.3399 19.008C25.505 18.6436 24.816 18.1235 24.2727 17.4477C23.736 16.7652 23.3948 15.9569 23.249 15.0227L25.7336 14.645C25.9456 15.4931 26.3796 16.149 27.0355 16.6128C27.6981 17.0766 28.4601 17.3085 29.3214 17.3085C29.8315 17.3085 30.3119 17.229 30.7624 17.07C31.213 16.911 31.5774 16.6791 31.8557 16.3743C32.1406 16.0695 32.283 15.6952 32.283 15.2513C32.283 15.0525 32.2499 14.8703 32.1836 14.7047C32.1174 14.5324 32.018 14.38 31.8855 14.2475C31.7596 14.115 31.594 13.9957 31.3886 13.8897C31.1898 13.7771 30.9579 13.681 30.6929 13.6015L26.9958 12.5083C26.6778 12.4155 26.3332 12.2929 25.9622 12.1406C25.5978 11.9815 25.25 11.7662 24.9187 11.4946C24.594 11.2163 24.3257 10.8651 24.1137 10.4411C23.9083 10.0104 23.8056 9.48039 23.8056 8.85095C23.8056 7.93 24.0375 7.15812 24.5013 6.53531C24.9717 5.90588 25.6011 5.43546 26.3896 5.12406C27.1846 4.81266 28.0658 4.66027 29.0332 4.66689C30.0138 4.67352 30.8883 4.84247 31.6569 5.17375C32.4255 5.49841 33.0681 5.97214 33.5849 6.59494C34.1017 7.21775 34.4661 7.96975 34.6782 8.85095L32.1041 9.29818C31.9981 8.79464 31.7927 8.36729 31.4879 8.01613C31.1898 7.65835 30.8221 7.3867 30.3848 7.20118C29.9541 7.01567 29.4936 6.91628 29.0033 6.90303C28.5263 6.89641 28.0824 6.96929 27.6716 7.12168C27.2674 7.26744 26.9395 7.47946 26.6877 7.75773C26.4426 8.03601 26.32 8.36066 26.32 8.73169C26.32 9.08285 26.426 9.37106 26.638 9.59633C26.85 9.81498 27.1117 9.99056 27.4231 10.1231C27.7412 10.249 28.0625 10.355 28.3872 10.4411L30.9513 11.1567C31.3024 11.2494 31.6967 11.3753 32.1339 11.5343C32.5712 11.6933 32.992 11.9153 33.3961 12.2002C33.8003 12.4851 34.1316 12.8594 34.39 13.3232C34.655 13.787 34.7875 14.3767 34.7875 15.0923C34.7875 15.8343 34.6318 16.4869 34.3204 17.0501C34.0156 17.6067 33.6015 18.0705 33.0781 18.4415C32.5547 18.8125 31.955 19.0908 31.2792 19.2763C30.6101 19.4618 29.9077 19.5546 29.1723 19.5546Z" fill="black"/>
<defs>
<clipPath id="clip0_30_501">
<rect width="17.1206" height="28" fill="white" transform="translate(0.833008)"/>
</clipPath>
</defs>
</svg>
