<svg width="100" height="28" viewBox="0 0 100 28" fill="none" xmlns="http://www.w3.org/2000/svg">
<g clip-path="url(#clip0_30_515)">
<path d="M19.7321 27.759C19.7321 27.8989 19.6054 28 19.4654 28C18.2566 28 17.0646 28 15.8689 28C15.3534 28 14.9355 27.5821 14.9355 27.0667C14.9355 23.0212 14.9355 18.9857 14.9355 14.9192C14.9355 14.7105 15.1531 14.5727 15.3373 14.6709C16.7031 15.4582 18.069 16.2537 19.4348 17.033C19.6196 17.1374 19.7401 17.2339 19.7401 17.4829C19.7321 20.9056 19.7321 24.3283 19.7321 27.759Z" fill="black"/>
<path d="M14.3901 11.9356C14.3901 12.6545 13.6114 13.1037 12.9889 12.7441C11.8953 12.1121 10.8208 11.4914 9.75422 10.8706C9.67387 10.8224 9.60156 10.6858 9.60156 10.5894C9.60156 7.08639 9.60156 3.58338 9.6096 0.0803665C9.6096 0.0346725 9.66452 0.00805664 9.71021 0.00805664C10.9527 0.00805664 12.2002 0.00805664 13.4567 0.00805664C13.9722 0.00805664 14.3901 0.425929 14.3901 0.941394C14.3901 4.59511 14.3901 8.24263 14.3901 11.9356Z" fill="black"/>
<path d="M16.3121 12.7528C15.6897 13.1123 14.9109 12.6632 14.9104 11.9445C14.9095 10.691 14.9106 9.46919 14.9275 8.25137C14.9275 8.10675 15.0962 7.90589 15.2409 7.81751C17.8761 6.28294 20.5195 4.76443 23.1548 3.23789C23.2617 3.1761 23.3679 3.11431 23.4749 3.05211C23.9155 2.79598 24.4771 2.94852 24.7323 3.38957C25.2252 4.24109 25.7154 5.09307 26.2143 5.95681C26.4722 6.40328 26.3201 6.97452 25.8738 7.23273C22.694 9.07245 19.5212 10.8995 16.3121 12.7528Z" fill="black"/>
<path d="M5.1574 25.3433C5.09084 25.3641 5.01211 25.3375 4.97717 25.2771C4.35531 24.2028 3.73787 23.1326 3.10947 22.0435C2.85183 21.597 3.00492 21.0261 3.45142 20.7685C6.8821 18.7888 10.3047 16.8128 13.7734 14.8078C14.0577 14.6435 14.4134 14.8486 14.4134 15.1771C14.4134 16.6795 14.4214 18.1739 14.4053 19.6763C14.4053 19.829 14.3089 20.054 14.1884 20.1182C11.1878 21.8672 8.17923 23.6002 5.17863 25.3332C5.17006 25.3381 5.16685 25.3403 5.1574 25.3433Z" fill="black"/>
<path d="M16.57 14.8113C15.9476 14.4524 15.9465 13.5537 16.5679 13.1931C17.1919 12.831 17.8036 12.4761 18.4152 12.1239C18.7607 11.9231 19.1303 11.7544 19.4517 11.5133C19.8293 11.2321 20.1346 11.2884 20.5283 11.5133C23.3564 13.1684 26.1926 14.7994 29.0287 16.4384C29.1987 16.5466 29.2544 16.7696 29.1538 16.9442C28.5714 17.9552 27.9884 18.9635 27.3984 19.9849C27.1406 20.4312 26.5698 20.5843 26.1234 20.3266C22.9447 18.4919 19.7775 16.6606 16.57 14.8113Z" fill="black"/>
<path d="M12.7601 13.1957C13.3813 13.5552 13.3811 14.4524 12.7598 14.8118C11.6601 15.448 10.5862 16.0677 9.50425 16.6795C9.41587 16.7277 9.23911 16.7197 9.1427 16.6634C6.12979 14.936 3.11687 13.1925 0.111996 11.4491C0.0307212 11.4084 0.0311937 11.2899 0.0767126 11.2113C0.692463 10.1474 1.30402 9.08744 1.92631 8.00895C2.1843 7.56182 2.75629 7.4091 3.20294 7.66792C6.38824 9.51372 9.55668 11.3419 12.7601 13.1957Z" fill="black"/>
</g>
<path d="M94.1643 20.6735C93.4354 20.6735 92.8186 20.5364 92.314 20.2623C91.8093 19.9819 91.4262 19.6113 91.1645 19.1502C90.9091 18.6892 90.7814 18.1814 90.7814 17.627C90.7814 17.141 90.8624 16.7049 91.0243 16.3186C91.1863 15.9262 91.4355 15.5897 91.772 15.3094C92.1084 15.0228 92.5445 14.7892 93.0803 14.6085C93.4852 14.4777 93.9587 14.3593 94.5007 14.2534C95.049 14.1475 95.6408 14.0509 96.2763 13.9637C96.918 13.8702 97.5878 13.7705 98.2855 13.6646L97.4818 14.1225C97.4881 13.4248 97.3323 12.9108 97.0146 12.5806C96.6968 12.2504 96.1611 12.0853 95.4072 12.0853C94.9524 12.0853 94.5132 12.1912 94.0896 12.403C93.6659 12.6149 93.37 12.9793 93.2018 13.4964L91.1458 12.8516C91.395 11.9981 91.8685 11.3128 92.5663 10.7957C93.2703 10.2786 94.2173 10.02 95.4072 10.02C96.3044 10.02 97.0925 10.1664 97.7715 10.4592C98.4569 10.7521 98.9646 11.2318 99.2948 11.8984C99.4755 12.2535 99.5845 12.618 99.6219 12.9918C99.6593 13.3594 99.6779 13.7612 99.6779 14.1973V20.3931H97.7061V18.2064L98.0332 18.5615C97.5784 19.2904 97.0457 19.8262 96.4352 20.1688C95.8309 20.5053 95.0739 20.6735 94.1643 20.6735ZM94.6129 18.8792C95.1237 18.8792 95.5599 18.7889 95.9212 18.6082C96.2825 18.4275 96.5691 18.2064 96.781 17.9447C96.999 17.683 97.1454 17.437 97.2202 17.2064C97.3385 16.9199 97.404 16.5928 97.4164 16.2252C97.4351 15.8514 97.4445 15.5492 97.4445 15.3187L98.136 15.5243C97.4569 15.6302 96.8744 15.7237 96.3885 15.8047C95.9025 15.8857 95.4851 15.9635 95.1362 16.0383C94.7873 16.1068 94.4789 16.1847 94.211 16.2719C93.9494 16.3654 93.7282 16.4744 93.5475 16.599C93.3669 16.7236 93.2267 16.8669 93.127 17.0289C93.0336 17.1909 92.9868 17.3809 92.9868 17.5989C92.9868 17.8481 93.0491 18.0693 93.1737 18.2624C93.2983 18.4493 93.479 18.5989 93.7157 18.711C93.9587 18.8231 94.2578 18.8792 94.6129 18.8792Z" fill="black"/>
<path d="M86.6531 20.3932V14.2628C86.6531 13.5712 86.4818 13.0323 86.1392 12.646C85.7965 12.2536 85.3324 12.0573 84.7467 12.0573C84.3854 12.0573 84.0614 12.1414 83.7748 12.3096C83.4883 12.4716 83.2609 12.7146 83.0926 13.0385C82.9244 13.3563 82.8403 13.7363 82.8403 14.1787L81.8404 13.5899C81.8342 12.8921 81.9899 12.2785 82.3076 11.7489C82.6316 11.2131 83.0677 10.7957 83.616 10.4967C84.1642 10.1976 84.7748 10.0481 85.4476 10.0481C86.5628 10.0481 87.4163 10.3845 88.0082 11.0574C88.6063 11.724 88.9053 12.6024 88.9053 13.6927V20.3932H86.6531ZM74.5138 20.3932V10.3004H76.5043V13.431H76.7847V20.3932H74.5138ZM80.5975 20.3932V14.2908C80.5975 13.5868 80.4262 13.0385 80.0835 12.646C79.7408 12.2536 79.2736 12.0573 78.6817 12.0573C78.1086 12.0573 77.6475 12.2536 77.2987 12.646C76.956 13.0385 76.7847 13.5494 76.7847 14.1787L75.7754 13.5058C75.7754 12.8516 75.9374 12.2629 76.2613 11.7396C76.5853 11.2162 77.0214 10.8051 77.5697 10.506C78.1241 10.2007 78.744 10.0481 79.4293 10.0481C80.1832 10.0481 80.8124 10.2101 81.3171 10.534C81.8279 10.8518 82.208 11.2879 82.4572 11.8424C82.7126 12.3906 82.8403 13.0105 82.8403 13.702V20.3932H80.5975Z" fill="black"/>
<path d="M67.2576 25.1592C66.6969 25.1592 66.158 25.0719 65.6409 24.8975C65.1301 24.7231 64.669 24.4707 64.2578 24.1405C63.8467 23.8166 63.5102 23.4241 63.2486 22.963L65.3232 21.9351C65.5163 22.3027 65.7873 22.5737 66.1362 22.7481C66.4913 22.9288 66.8682 23.0191 67.267 23.0191C67.7342 23.0191 68.1516 22.935 68.5192 22.7668C68.8868 22.6048 69.1703 22.3618 69.3696 22.0379C69.5752 21.7201 69.6718 21.3214 69.6593 20.8417V17.9727H69.9397V10.3004H71.9115V20.8791C71.9115 21.1345 71.8991 21.3775 71.8741 21.608C71.8554 21.8447 71.8212 22.0753 71.7713 22.2995C71.6218 22.9537 71.3352 23.4895 70.9116 23.9069C70.4879 24.3306 69.9615 24.6452 69.3323 24.8508C68.7092 25.0564 68.0177 25.1592 67.2576 25.1592ZM67.0614 20.6735C66.1331 20.6735 65.3232 20.4399 64.6316 19.9726C63.9401 19.5053 63.4043 18.8699 63.0243 18.0662C62.6442 17.2625 62.4542 16.356 62.4542 15.3468C62.4542 14.325 62.6442 13.4154 63.0243 12.618C63.4105 11.8143 63.9557 11.1819 64.6597 10.7209C65.3637 10.2536 66.1923 10.02 67.1455 10.02C68.1049 10.02 68.9086 10.2536 69.5565 10.7209C70.2107 11.1819 70.706 11.8143 71.0424 12.618C71.3788 13.4217 71.5471 14.3312 71.5471 15.3468C71.5471 16.3498 71.3788 17.2563 71.0424 18.0662C70.706 18.8699 70.2045 19.5053 69.5378 19.9726C68.8712 20.4399 68.0457 20.6735 67.0614 20.6735ZM67.4072 18.6549C68.0115 18.6549 68.4974 18.5179 68.865 18.2437C69.2388 17.9634 69.5098 17.574 69.678 17.0756C69.8525 16.5772 69.9397 16.0009 69.9397 15.3468C69.9397 14.6864 69.8525 14.1101 69.678 13.6179C69.5098 13.1195 69.245 12.7332 68.8837 12.4591C68.5223 12.1787 68.0551 12.0386 67.4819 12.0386C66.8776 12.0386 66.3792 12.1881 65.9867 12.4871C65.5942 12.78 65.3045 13.1787 65.1176 13.6833C64.9307 14.1817 64.8372 14.7362 64.8372 15.3468C64.8372 15.9635 64.9276 16.5242 65.1082 17.0289C65.2951 17.5273 65.5786 17.9229 65.9587 18.2157C66.3387 18.5085 66.8215 18.6549 67.4072 18.6549Z" fill="black"/>
<path d="M57.963 8.76779V6.70251H60.2152V8.76779H57.963ZM57.963 20.3932V10.3004H60.2152V20.3932H57.963Z" fill="black"/>
<path d="M53.0573 20.3932V15.5337C53.0573 15.216 53.0355 14.864 52.9918 14.4777C52.9482 14.0915 52.8454 13.7208 52.6835 13.3657C52.5277 13.0043 52.291 12.7084 51.9732 12.4779C51.6617 12.2473 51.2381 12.1321 50.7023 12.1321C50.4157 12.1321 50.1322 12.1788 49.8519 12.2723C49.5715 12.3657 49.3161 12.5277 49.0856 12.7582C48.8613 12.9825 48.6806 13.294 48.5435 13.6927C48.4065 14.0852 48.338 14.5899 48.338 15.2066L47.0016 14.6366C47.0016 13.7768 47.1667 12.9981 47.4969 12.3003C47.8333 11.6025 48.3255 11.0481 48.9734 10.6369C49.6214 10.2195 50.4188 10.0107 51.3658 10.0107C52.1134 10.0107 52.7302 10.1353 53.2161 10.3845C53.7021 10.6338 54.0883 10.9515 54.3749 11.3378C54.6615 11.724 54.8733 12.1352 55.0104 12.5713C55.1475 13.0074 55.2347 13.4217 55.2721 13.8142C55.3157 14.2005 55.3375 14.5151 55.3375 14.7581V20.3932H53.0573ZM46.0577 20.3932V10.3004H48.0669V13.4311H48.338V20.3932H46.0577Z" fill="black"/>
<path d="M35.1437 20.3931V6.9361H43.8347V9.0481H37.3959V12.3656H42.7132V14.4776H37.3959V18.2811H43.8347V20.3931H35.1437Z" fill="black"/>
<defs>
<clipPath id="clip0_30_515">
<rect width="29.3337" height="28" fill="white"/>
</clipPath>
</defs>
</svg>
