<svg width="117" height="28" viewBox="0 0 117 28" fill="none" xmlns="http://www.w3.org/2000/svg">
<g clip-path="url(#clip0_30_531)">
<path d="M19.2155 27.9231C19.1623 27.963 19.0837 27.9143 19.0824 27.8479C18.9004 18.4724 11.6829 10.2272 1.19414 9.79074C1.05664 9.78502 0.97428 9.61514 1.07159 9.51784C4.17757 6.41185 7.28356 3.30587 10.3819 0.192192C10.5587 0.0153661 10.7124 -0.0384505 10.9508 0.0230542C19.1232 2.12959 24.9662 6.88851 27.9722 14.8841C28.3489 15.8836 28.5719 16.9445 28.8486 17.9824C28.8794 18.0977 28.8333 18.2976 28.7487 18.3822C25.5735 21.5651 22.3983 24.7479 19.2155 27.9231Z" fill="black"/>
<path d="M0.97168 14C1.7328 13.2004 2.49392 12.3778 3.29348 11.5859C3.4088 11.4706 3.70095 11.4783 3.89315 11.5167C5.61528 11.8396 7.24515 12.4547 8.78277 13.2927C13.4571 15.8682 16.2633 19.8122 17.3627 25.0093C17.4242 25.3015 17.3704 25.5014 17.1551 25.7243C16.417 26.447 15.702 27.2004 14.9717 27.9462C14.9563 27.9616 14.9332 27.9692 14.8794 28C14.718 24.1944 13.534 20.8116 10.774 18.1208C8.02934 15.4454 4.67734 14.1922 0.97168 14Z" fill="black"/>
<path d="M10.6353 27.9846C10.4354 21.6573 5.36129 18.313 0.833008 18.2208C0.956017 18.0901 1.0329 17.9901 1.12515 17.8979C1.75558 17.2828 2.40138 16.6755 3.01642 16.0374C3.27013 15.7683 3.50846 15.7068 3.85442 15.8067C8.41346 17.0906 11.4579 19.9429 12.934 24.4712C13.1647 25.1939 13.1186 25.6936 12.5035 26.1933C11.8423 26.7238 11.2657 27.3696 10.6353 27.9846Z" fill="black"/>
<path d="M6.42249 27.9231C6.23029 24.7018 3.85467 22.626 0.848633 22.4262C0.933202 22.3262 1.00239 22.2416 1.07159 22.1648C1.73276 21.519 2.39394 20.8808 3.04742 20.2274C3.21656 20.0505 3.36264 20.0275 3.58559 20.112C6.15341 21.0423 7.82941 22.849 8.77505 25.3707C8.81349 25.4629 8.79811 25.6398 8.73661 25.7013C7.96011 26.4547 7.18361 27.1928 6.42249 27.9231Z" fill="black"/>
</g>
<path d="M114.609 20.7159V14.9642C114.609 14.3154 114.449 13.8098 114.127 13.4474C113.806 13.0791 113.37 12.895 112.821 12.895C112.482 12.895 112.178 12.9739 111.909 13.1317C111.64 13.2837 111.427 13.5117 111.269 13.8156C111.111 14.1137 111.032 14.4703 111.032 14.8853L110.094 14.3329C110.088 13.6782 110.234 13.1025 110.532 12.6056C110.836 12.1029 111.245 11.7113 111.76 11.4307C112.274 11.1502 112.847 11.0099 113.478 11.0099C114.525 11.0099 115.325 11.3255 115.881 11.9568C116.442 12.5823 116.722 13.4064 116.722 14.4294V20.7159H114.609ZM103.22 20.7159V11.2466H105.088V14.1839H105.351V20.7159H103.22ZM108.928 20.7159V14.9905C108.928 14.33 108.767 13.8156 108.446 13.4474C108.124 13.0791 107.686 12.895 107.13 12.895C106.593 12.895 106.16 13.0791 105.833 13.4474C105.511 13.8156 105.351 14.2949 105.351 14.8853L104.404 14.254C104.404 13.6402 104.556 13.0879 104.86 12.5969C105.164 12.1059 105.573 11.7201 106.087 11.4395C106.607 11.1531 107.189 11.0099 107.832 11.0099C108.539 11.0099 109.13 11.1619 109.603 11.4658C110.082 11.7639 110.439 12.1731 110.673 12.6933C110.912 13.2077 111.032 13.7893 111.032 14.4381V20.7159H108.928Z" fill="black"/>
<path d="M95.8115 20.9877C95.1101 20.9877 94.5314 20.8708 94.0755 20.637C93.6196 20.4032 93.2572 20.1051 92.9883 19.7427C92.7194 19.3802 92.5207 18.9945 92.3921 18.5853C92.2635 18.1761 92.1787 17.7903 92.1378 17.4279C92.1027 17.0597 92.0852 16.7616 92.0852 16.5336V11.2466H94.2246V15.8059C94.2246 16.0981 94.245 16.4284 94.2859 16.7966C94.3269 17.1591 94.4204 17.5098 94.5665 17.8488C94.7185 18.182 94.9406 18.4567 95.2329 18.673C95.531 18.8892 95.9314 18.9974 96.4341 18.9974C96.703 18.9974 96.9689 18.9535 97.2319 18.8659C97.495 18.7782 97.7317 18.6291 97.9421 18.4187C98.1584 18.2024 98.3309 17.9072 98.4594 17.5331C98.588 17.1591 98.6523 16.6856 98.6523 16.1128L99.9061 16.6476C99.9061 17.4542 99.7483 18.1849 99.4327 18.8396C99.1229 19.4942 98.664 20.0174 98.0561 20.409C97.4482 20.7948 96.7 20.9877 95.8115 20.9877ZM98.9066 20.7159V17.7786H98.6523V11.2466H100.774V20.7159H98.9066Z" fill="black"/>
<path d="M85.2562 20.716V11.2467H87.1238V13.5526L86.8958 13.2545C87.0127 12.9389 87.1676 12.6524 87.3605 12.3952C87.5593 12.1322 87.796 11.9159 88.0707 11.7464C88.3045 11.5886 88.5617 11.4658 88.8423 11.3782C89.1287 11.2846 89.421 11.2291 89.7191 11.2116C90.0172 11.1882 90.3065 11.1999 90.5871 11.2467V13.2194C90.3065 13.1376 89.9821 13.1113 89.6139 13.1405C89.2515 13.1697 88.9241 13.272 88.6319 13.4474C88.3396 13.6052 88.0999 13.8069 87.9129 14.0524C87.7317 14.2979 87.5972 14.5784 87.5096 14.8941C87.4219 15.2039 87.3781 15.54 87.3781 15.9024V20.716H85.2562Z" fill="black"/>
<path d="M83.2196 20.7159C82.5942 20.8328 81.9805 20.8825 81.3784 20.8649C80.7822 20.8532 80.2473 20.7451 79.7739 20.5405C79.3004 20.3301 78.9409 19.9998 78.6954 19.5497C78.4791 19.1406 78.3652 18.7226 78.3535 18.2959C78.3418 17.8692 78.3359 17.387 78.3359 16.8492V8.61621H80.4402V16.7265C80.4402 17.1064 80.4431 17.4396 80.449 17.726C80.4607 18.0124 80.5221 18.2463 80.6331 18.4275C80.8435 18.7782 81.1796 18.974 81.6414 19.0149C82.1032 19.0558 82.6293 19.0324 83.2196 18.9448V20.7159ZM76.6174 12.9037V11.2466H83.2196V12.9037H76.6174Z" fill="black"/>
<path d="M71.6961 20.979C70.7199 20.979 69.887 20.7627 69.1972 20.3301C68.5075 19.8917 67.9785 19.2955 67.6102 18.5415C67.2478 17.7875 67.0637 16.934 67.0579 15.9813C67.0637 15.011 67.2537 14.1517 67.6278 13.4035C68.0077 12.6495 68.5455 12.0591 69.2411 11.6324C69.9366 11.1999 70.7637 10.9836 71.7224 10.9836C72.7979 10.9836 73.7068 11.2554 74.4492 11.799C75.1974 12.3368 75.6854 13.0733 75.9134 14.0085L73.8091 14.5784C73.6455 14.0699 73.3737 13.6753 72.9937 13.3947C72.6138 13.1083 72.1812 12.9651 71.6961 12.9651C71.1466 12.9651 70.6936 13.0966 70.337 13.3597C69.9805 13.6169 69.7175 13.9734 69.5479 14.4294C69.3784 14.8853 69.2937 15.4026 69.2937 15.9813C69.2937 16.8814 69.4953 17.6092 69.8987 18.1645C70.302 18.7198 70.9011 18.9974 71.6961 18.9974C72.2572 18.9974 72.6985 18.8688 73.02 18.6116C73.3473 18.3544 73.5929 17.9833 73.7565 17.4981L75.9134 17.9803C75.6212 18.9448 75.1097 19.6872 74.379 20.2074C73.6484 20.7218 72.7541 20.979 71.6961 20.979Z" fill="black"/>
<path d="M61.3401 20.979C60.3815 20.979 59.5398 20.7715 58.815 20.3564C58.0902 19.9414 57.5232 19.3657 57.114 18.6292C56.7107 17.8927 56.509 17.0451 56.509 16.0865C56.509 15.0519 56.7078 14.1546 57.1052 13.3947C57.5027 12.629 58.0551 12.0357 58.7624 11.6149C59.4697 11.194 60.288 10.9836 61.2174 10.9836C62.1994 10.9836 63.0323 11.2145 63.7162 11.6762C64.406 12.1322 64.9174 12.7781 65.2506 13.6139C65.5838 14.4498 65.7095 15.4347 65.6276 16.5687H63.5321V15.7971C63.5263 14.7684 63.3451 14.0173 62.9885 13.5438C62.6319 13.0703 62.0708 12.8336 61.3051 12.8336C60.44 12.8336 59.797 13.1025 59.3761 13.6402C58.9553 14.1722 58.7448 14.9525 58.7448 15.9813C58.7448 16.9399 58.9553 17.6822 59.3761 18.2083C59.797 18.7344 60.4107 18.9974 61.2174 18.9974C61.7376 18.9974 62.1848 18.8834 62.5589 18.6555C62.9388 18.4217 63.2311 18.0856 63.4357 17.6472L65.5224 18.2785C65.16 19.1319 64.5989 19.7953 63.839 20.2688C63.0849 20.7422 62.252 20.979 61.3401 20.979ZM58.0785 16.5687V14.973H64.593V16.5687H58.0785Z" fill="black"/>
<path d="M50.7795 20.979C49.8559 20.979 49.0814 20.7598 48.456 20.3214C47.8306 19.883 47.36 19.2868 47.0444 18.5327C46.7287 17.7728 46.5709 16.9224 46.5709 15.9813C46.5709 15.0285 46.7287 14.1751 47.0444 13.421C47.36 12.667 47.8218 12.0737 48.4297 11.6412C49.0434 11.2028 49.8004 10.9836 50.7006 10.9836C51.5949 10.9836 52.3694 11.2028 53.0241 11.6412C53.6846 12.0737 54.196 12.667 54.5584 13.421C54.9208 14.1692 55.1021 15.0226 55.1021 15.9813C55.1021 16.9282 54.9238 17.7787 54.5672 18.5327C54.2106 19.2868 53.708 19.883 53.0591 20.3214C52.4103 20.7598 51.6504 20.979 50.7795 20.979ZM46.2114 24.9245V11.2466H48.079V17.8927H48.342V24.9245H46.2114ZM50.4551 19.0851C51.0045 19.0851 51.4575 18.9477 51.8141 18.673C52.1707 18.3983 52.4337 18.0271 52.6032 17.5595C52.7786 17.086 52.8662 16.5599 52.8662 15.9813C52.8662 15.4084 52.7786 14.8882 52.6032 14.4206C52.4278 13.9471 52.156 13.573 51.7878 13.2983C51.4195 13.0177 50.9519 12.8774 50.3849 12.8774C49.8472 12.8774 49.4088 13.009 49.0698 13.272C48.7307 13.5292 48.4794 13.8916 48.3157 14.3592C48.1579 14.821 48.079 15.3617 48.079 15.9813C48.079 16.595 48.1579 17.1357 48.3157 17.6033C48.4794 18.0709 48.7337 18.4363 49.0785 18.6993C49.4292 18.9565 49.8881 19.0851 50.4551 19.0851Z" fill="black"/>
<path d="M39.3773 20.9789C38.4537 20.9789 37.6208 20.8182 36.8784 20.4967C36.1419 20.1752 35.534 19.7164 35.0547 19.1202C34.5812 18.5181 34.2802 17.805 34.1516 16.9808L36.3436 16.6476C36.5306 17.3958 36.9135 17.9745 37.4922 18.3836C38.0767 18.7928 38.7489 18.9974 39.5088 18.9974C39.9589 18.9974 40.3826 18.9273 40.7801 18.787C41.1776 18.6467 41.4991 18.4421 41.7446 18.1732C41.9959 17.9043 42.1216 17.5741 42.1216 17.1825C42.1216 17.0071 42.0924 16.8463 42.0339 16.7002C41.9755 16.5482 41.8878 16.4138 41.7709 16.2969C41.6598 16.18 41.5137 16.0748 41.3325 15.9813C41.1571 15.8819 40.9526 15.7971 40.7187 15.727L37.4571 14.7625C37.1765 14.6807 36.8726 14.5725 36.5452 14.4381C36.2238 14.2978 35.9169 14.1079 35.6246 13.8682C35.3382 13.6227 35.1015 13.3129 34.9144 12.9388C34.7332 12.5589 34.6426 12.0912 34.6426 11.5359C34.6426 10.7234 34.8472 10.0425 35.2564 9.49303C35.6714 8.93773 36.2267 8.52271 36.9223 8.24799C37.6237 7.97326 38.4011 7.83882 39.2545 7.84467C40.1196 7.85051 40.8912 7.99956 41.5692 8.29183C42.2473 8.57824 42.8143 8.99618 43.2702 9.54563C43.7261 10.0951 44.0476 10.7585 44.2347 11.5359L41.9638 11.9305C41.8703 11.4863 41.6891 11.1092 41.4202 10.7994C41.1571 10.4838 40.8327 10.2441 40.4469 10.0805C40.067 9.91681 39.6608 9.82913 39.2282 9.81744C38.8074 9.81159 38.4157 9.87589 38.0533 10.0103C37.6968 10.1389 37.4074 10.326 37.1853 10.5715C36.969 10.817 36.8609 11.1034 36.8609 11.4307C36.8609 11.7405 36.9544 11.9948 37.1415 12.1935C37.3285 12.3864 37.5594 12.5413 37.8341 12.6582C38.1147 12.7693 38.3982 12.8628 38.6846 12.9388L40.9467 13.5701C41.2565 13.6519 41.6043 13.763 41.9901 13.9033C42.3759 14.0436 42.747 14.2394 43.1036 14.4907C43.4602 14.7421 43.7524 15.0723 43.9804 15.4815C44.2142 15.8907 44.3311 16.4109 44.3311 17.0422C44.3311 17.6968 44.1937 18.2726 43.919 18.7694C43.6501 19.2604 43.2848 19.6696 42.823 19.9969C42.3613 20.3243 41.8323 20.5698 41.2361 20.7334C40.6457 20.8971 40.0261 20.9789 39.3773 20.9789Z" fill="black"/>
<defs>
<clipPath id="clip0_30_531">
<rect width="28.0231" height="28" fill="white" transform="translate(0.833008)"/>
</clipPath>
</defs>
</svg>
